<svg version="1.1" viewBox="0.0 0.0 741.6824146981627 434.31758530183725" fill="none" stroke="none" stroke-linecap="square" stroke-miterlimit="10" xmlns:xlink="http://www.w3.org/1999/xlink" xmlns="http://www.w3.org/2000/svg"><clipPath id="p.0"><path d="m0 0l741.68243 0l0 434.3176l-741.68243 0l0 -434.3176z" clip-rule="nonzero"/></clipPath><g clip-path="url(#p.0)"><path fill="#000000" fill-opacity="0.0" d="m0 0l741.68243 0l0 434.3176l-741.68243 0z" fill-rule="evenodd"/><path fill="#e2827f" fill-opacity="0.251" d="m741.633 166.9785l0 0c0 -92.220245 -72.08569 -166.97952 -161.00787 -166.97952l0 0c-42.701965 0 -83.65494 17.592436 -113.84976 48.907173c-30.194855 31.314735 -47.15811 73.78663 -47.15811 118.07236l0 0c0 92.22023 72.08566 166.97954 161.00787 166.97954l0 0c88.92218 0 161.00787 -74.75931 161.00787 -166.97954z" fill-rule="evenodd"/><path fill="#f3bd7d" fill-opacity="0.251" d="m509.0558 48.161716l-322.01575 0l0 333.95905l322.01575 0z" fill-rule="evenodd"/><path fill="#5cd9c0" fill-opacity="0.251" d="m322.01578 434.0477l-161.00787 -333.95905l-161.00787 333.95905z" fill-rule="evenodd"/></g></svg>