<svg version="1.1" viewBox="0.0 0.0 487.06561679790025 731.514435695538" fill="none" stroke="none" stroke-linecap="square" stroke-miterlimit="10" xmlns:xlink="http://www.w3.org/1999/xlink" xmlns="http://www.w3.org/2000/svg"><clipPath id="p.0"><path d="m0 0l487.0656 0l0 731.51447l-487.0656 0l0 -731.51447z" clip-rule="nonzero"/></clipPath><g clip-path="url(#p.0)"><path fill="#000000" fill-opacity="0.0" d="m0 0l487.0656 0l0 731.51447l-487.0656 0z" fill-rule="evenodd"/><path fill="#e2827f" fill-opacity="0.251" d="m486.76535 181.09349l0 0c0 -100.089645 -80.927155 -181.22833 -180.75589 -181.22833l0 0c-47.939453 0 -93.91542 19.093647 -127.81372 53.080555c-33.898315 33.986904 -52.942184 80.08304 -52.942184 128.14778l0 0c0 100.089645 80.92717 181.22835 180.7559 181.22835l0 0c99.828735 0 180.75589 -81.1387 180.75589 -181.22835z" fill-rule="evenodd"/><path fill="#f3bd7d" fill-opacity="0.251" d="m435.05435 214.43338l-361.5118 0l0 362.14175l361.5118 0z" fill-rule="evenodd"/><path fill="#5cd9c0" fill-opacity="0.251" d="m361.81207 731.6493l-180.75592 -362.4567l-180.7559 362.4567z" fill-rule="evenodd"/></g></svg>